<svg aria-hidden="true" style="position: absolute; width: 0; height: 0; overflow: hidden;" version="1.1" xmlns="http://www.w3.org/2000/svg" xmlns:xlink="http://www.w3.org/1999/xlink">
<defs>
<symbol id="icon-menu" viewBox="0 0 36 32">
<path  d="M5.38 24h24.013v-2.667h-24.013v2.667zM5.38 17.333h24.013v-2.667h-24.013v2.667zM5.38 8v2.667h24.013v-2.667h-24.013z"></path>
</symbol>
<symbol id="icon-Frame" viewBox="0 0 32 32">
<path  d="M19.5 18h-0.79l-0.28-0.27c0.98-1.14 1.57-2.62 1.57-4.23 0-3.59-2.91-6.5-6.5-6.5s-6.5 2.91-6.5 6.5c0 3.59 2.91 6.5 6.5 6.5 1.61 0 3.090-0.59 4.23-1.57l0.27 0.28v0.79l5 4.99 1.49-1.49-4.99-5zM13.5 18c-2.49 0-4.5-2.010-4.5-4.5s2.010-4.5 4.5-4.5c2.49 0 4.5 2.010 4.5 4.5s-2.010 4.5-4.5 4.5z"></path>
</symbol>
<symbol id="icon-Union-r" viewBox="0 0 19 32">
<path d="M11.255 15.88l-9.81 9.81c-1.277 1.277-1.277 3.348 0 4.625s3.348 1.277 4.625 0l12.172-12.172c1.277-1.277 1.277-3.348 0-4.625-0.164-0.164-0.341-0.307-0.528-0.429l-12.132-12.132c-1.277-1.277-3.348-1.277-4.625 0s-1.277 3.348 0 4.625l10.297 10.297z"></path>
</symbol>
<symbol id="icon-Union-l" viewBox="0 0 19 32">
<path d="M7.945 15.88l9.81 9.81c1.277 1.277 1.277 3.348 0 4.625s-3.348 1.277-4.625 0l-12.172-12.172c-1.277-1.277-1.277-3.348 0-4.625 0.164-0.164 0.341-0.307 0.528-0.429l12.132-12.132c1.277-1.277 3.348-1.277 4.625 0s1.277 3.348 0 4.625l-10.297 10.297z"></path>
</symbol>
<symbol id="icon-flower" viewBox="0 0 32 32">
<path  d="M23.8 9.913v-4.956c0-0.547-0.444-0.991-0.992-0.991h-0.992v-2.973c0-0.547-0.444-0.991-0.992-0.991-1.404 0-3.554-0.108-6.078 1.404-1.569-0.467-2.679-0.413-3.839-0.413-0.548 0-0.992 0.444-0.992 0.991v1.982h-0.992c-0.548 0-0.992 0.444-0.992 0.991v4.956c0 4.037 3.034 7.378 6.942 7.867v12.947c0 0.547 0.444 0.991 0.992 0.991s0.992-0.444 0.992-0.991v-3.469h1.487c3.007 0 5.454-2.445 5.454-5.451v-1.487c0-0.547-0.444-0.991-0.992-0.991h-2.479c-1.317 0-2.527 0.469-3.471 1.249v-2.798c3.902-0.483 6.942-3.808 6.942-7.867zM21.817 9.913c0 1.764-0.78 3.357-2.014 4.449 0.020-0.159 0.031-0.321 0.031-0.485 0-2.51-0.939-4.805-2.483-6.553 1.309-0.893 2.862-1.376 4.467-1.376v3.965zM19.834 1.984v2.182c-0.183 0.037-0.365 0.080-0.546 0.127-0.643-0.72-1.377-1.333-2.178-1.828 0.866-0.316 1.785-0.481 2.724-0.481zM11.901 2.975c1.97 0 3.883 0.719 5.371 2.093-0.491 0.253-0.962 0.549-1.408 0.883-1.153-0.866-2.5-1.488-3.964-1.786v-1.19zM9.917 9.913v-3.965c4.374 0 7.933 3.557 7.933 7.929 0 1.108-0.915 2.010-2.035 1.981-3.484-0.086-5.898-2.852-5.898-5.946zM20.33 21.311h1.487v0.496c0 1.913-1.557 3.469-3.471 3.469h-1.487v-0.496c0-1.913 1.557-3.469 3.471-3.469z"></path>
</symbol>
<symbol id="icon-facebook" viewBox="0 0 17 32">
<path d="M11.642 31.998v-14.4h4.663l0.762-6.4h-5.425v-3.117c0-1.648 0.045-3.283 2.501-3.283h2.488v-4.576c0-0.069-2.137-0.224-4.299-0.224-4.515 0-7.343 2.651-7.343 7.52v3.68h-4.989v6.4h4.989v14.4h6.652z"></path>
</symbol>
<symbol id="icon-linkedin" viewBox="0 0 32 32">
<path d="M3.001 6c-1.658 0-3.001-1.344-3.001-3.001 0-1.656 1.343-2.999 3.001-2.999 1.656 0 2.999 1.344 2.999 2.999 0.001 1.657-1.343 3.001-2.999 3.001zM25.846 32.001h6.154v-13.517c0-5.719-3.212-8.483-7.565-8.483-4.351 0-6.281 3.526-6.281 3.526v-2.341h-6.154v20.815h6.154v-11.207c0-3.002 1.509-4.789 4.052-4.789 2.337 0 3.64 1.715 3.64 4.789v11.207zM6 32.001h-6v-20h6v20z"></path>
</symbol>
<symbol id="icon-google" viewBox="0 0 32 32">
<path d="M31.714 12.806h-15.376c0 1.599 0 4.797-0.010 6.396h8.91c-0.341 1.599-1.552 3.838-3.262 4.965-0.002-0.002-0.003 0.010-0.006 0.008-2.274 1.501-5.275 1.842-7.504 1.394-3.493-0.694-6.257-3.227-7.379-6.444 0.007-0.005 0.011-0.050 0.016-0.053-0.702-1.996-0.702-4.668 0-6.267h-0.002c0.905-2.939 3.753-5.621 7.25-6.355 2.813-0.596 5.988 0.050 8.322 2.234 0.31-0.304 4.296-4.196 4.595-4.513-7.976-7.223-20.746-4.682-25.525 4.645h-0.002c0 0 0.002 0-0.008 0.018-2.364 4.581-2.266 9.98 0.016 14.342-0.007 0.005-0.011 0.008-0.016 0.013 2.068 4.014 5.832 7.092 10.367 8.264 4.818 1.263 10.949 0.4 15.056-3.315 0.002 0.002 0.003 0.003 0.005 0.005 3.48-3.134 5.646-8.473 4.552-15.338z"></path>
</symbol>
</defs>
</svg>